<?xml version="1.0" encoding="utf-8"?>
<!-- Generator: Adobe Illustrator 22.1.0, SVG Export Plug-In . SVG Version: 6.00 Build 0)  -->
<svg version="1.1" id="Layer_1" xmlns="http://www.w3.org/2000/svg" xmlns:xlink="http://www.w3.org/1999/xlink" x="0px" y="0px"
	 viewBox="0 0 19 20" style="enable-background:new 0 0 19 20;" xml:space="preserve">
<style type="text/css">
	.st0{fill:#888888;}
</style>
<title>Shape</title>
<desc>Created with Sketch.</desc>
<g id="Page-1">
	<g id="Shape">
		<path id="path-1_1_" class="st0" d="M16.8,0C18,0,19,1,19,2.3v10.3c0,1.3-1,2.3-2.2,2.3h-2.5l0.4,4.3c0,0.3-0.1,0.6-0.4,0.8
			c-0.3,0.1-0.6,0.1-0.9-0.1l-4.8-4.9H2.2c-1.2,0-2.2-1-2.2-2.3V2.3C0,1,1,0,2.2,0L16.8,0z M16.8,1.5H2.3c-0.4,0-0.7,0.3-0.7,0.8
			v10.3c0,0.4,0.3,0.8,0.7,0.8H9c0.2,0,0.4,0.1,0.5,0.2l3.5,3.6l-0.3-3c0-0.4,0.3-0.8,0.7-0.8h3.3c0.4,0,0.7-0.3,0.7-0.8V2.3
			C17.5,1.9,17.2,1.5,16.8,1.5L16.8,1.5z M15,3.3c0.4,0,0.7,0.3,0.7,0.8S15.4,4.9,15,4.9H4c-0.4,0-0.7-0.3-0.7-0.8S3.6,3.3,4,3.3H15
			z M15,6.7c0.4,0,0.7,0.3,0.7,0.8S15.4,8.2,15,8.2H4c-0.4,0-0.7-0.3-0.7-0.8S3.6,6.7,4,6.7H15z M15,10c0.4,0,0.7,0.3,0.7,0.8
			c0,0.4-0.3,0.8-0.7,0.8H4c-0.4,0-0.7-0.3-0.7-0.8C3.3,10.3,3.6,10,4,10H15z"/>
	</g>
</g>
</svg>
